<svg xmlns="http://www.w3.org/2000/svg" width="153" height="26" viewBox="0 0 153 26">
    <g fill="none" fill-rule="evenodd">
        <path fill="#FD5750" d="M0 20.35h5.72l-1.772 5.353H0V20.35zm0-10.175h9.09l-1.773 5.352H0v-5.352zM0 0h12.459l-1.772 5.352H0V0zm18.097 0h14.22v5.352H16.326L18.097 0zm-5.142 15.527l1.772-5.352h17.59v5.352H12.956zm-1.597 4.824h20.96v5.352H9.586l1.772-5.352z"/>
        <path fill="#000" d="M81.728 15.881l2.793-8.442c.822 0 1.602.008 2.36.008l-3.72 10.77h-2.937l-3.51-10.778h2.451l2.563 8.442zm32.546-13.854v14.095h3.26v2.094h-5.569V3.976h-2.3V2.026h4.61zm-11.05 7.405c.048-.182.534-2.091 2.424-2.091h3.243v2.333h-3.593c-.888 0-1.93.745-1.93 1.963l-.01 6.58h-2.376V7.41c.735 0 1.406-.003 2.197-.003l.046 2.024zm33.335 2.22c1.735.204 4.356.513 4.496 3.189.068 1.256-.432 2.042-.862 2.48-1.108 1.129-2.868 1.203-4.094 1.16-2.396-.083-4.454-1.084-4.54-1.126l.997-2.03c.015.008 1.614.867 3.507 1.01 2.835.214 2.857-.903 2.832-1.375-.034-.628-.6-.826-2.6-1.062-1.78-.21-4.47-.527-4.534-3.34-.021-.87.285-1.642.885-2.234.8-.791 2.11-1.216 3.593-1.164 2.266.079 4.216.68 4.298.705l-.672 2.16a16.1 16.1 0 0 0-3.705-.605c-.825-.029-1.58.172-1.925.513-.154.151-.219.328-.215.572.017.659.35.89 2.539 1.147zm16.057 3.188c.067 1.257-.432 2.043-.862 2.482-1.108 1.128-2.868 1.202-4.094 1.159-2.396-.083-4.454-1.084-4.54-1.126l.92-1.874c.016.007 1.69.711 3.584.854 2.835.213 2.857-.903 2.832-1.375-.033-.628-.599-.826-2.6-1.062-1.78-.21-4.47-.527-4.534-3.34-.021-.87.285-1.642.884-2.234.801-.792 2.11-1.216 3.594-1.164 2.266.078 4.217.68 4.298.705l-.672 2.159c-.018-.005-1.751-.604-3.705-.604-1.722 0-2.14.549-2.14 1.085 0 .659.35.89 2.539 1.147 1.735.204 4.356.513 4.496 3.188zM47.592 11.652c1.735.204 4.356.513 4.496 3.189.067 1.256-.432 2.042-.862 2.48-1.109 1.129-2.868 1.203-4.094 1.16-2.396-.083-4.454-1.084-4.54-1.126l.997-2.03c.015.008 1.614.867 3.507 1.01 2.835.214 2.857-.903 2.832-1.375-.033-.628-.599-.826-2.6-1.062-1.78-.21-4.47-.527-4.534-3.34-.021-.87.285-1.642.884-2.234.802-.791 2.11-1.216 3.594-1.164a18.19 18.19 0 0 1 4.298.705l-.672 2.16c-.018-.006-1.753-.538-3.705-.605-.825-.029-1.581.172-1.925.513-.154.151-.219.328-.214.572.015.659.35.89 2.538 1.147zm76.795-4.508c5.092 0 5.092 5.182 5.092 5.182v1.387h-8.09c0 1.317 1.15 2.734 3.282 2.734 1.781 0 3.629-.72 3.629-.72l.59 1.853s-2.27.908-4.409.908c-5.094 0-5.473-4.529-5.473-5.754 0-1.226.86-5.59 5.379-5.59zm2.893 4.615s.104-2.56-2.893-2.56c-2.71 0-3.026 2.56-3.026 2.56h5.92zM93.443 7.144c5.093 0 5.093 5.182 5.093 5.182v1.387h-8.09c0 1.317 1.15 2.734 3.282 2.734 1.781 0 3.629-.72 3.629-.72l.589 1.853s-2.27.908-4.408.908c-5.094 0-5.473-4.529-5.473-5.754 0-1.226.86-5.59 5.378-5.59zm2.894 4.615s.104-2.56-2.893-2.56c-2.71 0-3.026 2.56-3.026 2.56h5.92zm-37.07-4.615c5.092 0 5.092 5.182 5.092 5.182v1.387h-8.09c0 1.317 1.15 2.734 3.282 2.734 1.781 0 3.629-.72 3.629-.72l.589 1.853s-2.27.908-4.408.908c-5.094 0-5.474-4.529-5.474-5.754 0-1.226.86-5.59 5.38-5.59zm2.893 4.615s.104-2.56-2.893-2.56c-2.71 0-3.026 2.56-3.026 2.56h5.92zm6.8-2.327c.048-.182.534-2.091 2.424-2.091h3.243v2.333h-3.593c-.888 0-1.93.745-1.93 1.963l-.01 6.58h-2.376V7.41c.734 0 1.406-.003 2.197-.003l.046 2.024z"/>
    </g>
</svg>
