<?xml version="1.0" encoding="UTF-8"?>
<svg width="3584px" height="848px" viewBox="0 0 3584 848" version="1.1" xmlns="http://www.w3.org/2000/svg" xmlns:xlink="http://www.w3.org/1999/xlink">
    <!-- Generator: Sketch 51.3 (57544) - http://www.bohemiancoding.com/sketch -->
    <title>Group</title>
    <desc>Created with Sketch.</desc>
    <defs></defs>
    <g id="Page-1" stroke="none" stroke-width="1" fill="none" fill-rule="evenodd">
        <g id="Group" transform="translate(0.000000, -16.000000)">
            <g id="Group-2" transform="translate(0.000000, 157.599119)" fill="#1890FF">
                <path d="M1440.61949,224.405286 L1440.61949,226.338106 L1381.99064,522.703744 C1374.25936,561.360132 1363.95099,576.822687 1324.65033,576.822687 L1307.25496,576.822687 C1272.46421,576.822687 1254.42456,560.071586 1246.04901,526.569383 L1195.15143,329.421806 C1194.50716,326.844714 1194.50716,326.200441 1193.21861,326.200441 C1191.93007,326.200441 1191.93007,326.844714 1191.28579,329.421806 L1140.38822,526.569383 C1132.01267,560.071586 1113.97302,576.822687 1079.18227,576.822687 L1061.78689,576.822687 C1022.48623,576.822687 1012.17786,561.360132 1004.44659,522.703744 L987.720264,434.140969 C986.729075,438.320485 988.381057,432.703744 992.676211,417.290749 C999.118943,394.171256 999.118943,394.171256 999.118943,394.171256 L1028.85463,287.444934 C1035.29736,287.444934 1043.22687,287.444934 1043.22687,287.444934 C1043.22687,287.444934 1053.27919,356.844714 1073.38381,495.644273 C1074.02808,501.442731 1075.31663,504.664097 1076.60518,504.664097 C1077.89372,504.664097 1079.82654,502.087004 1081.11509,495.644273 L1134.58976,279.168502 C1141.03249,254.04185 1148.76377,251.464758 1170.66905,251.464758 L1215.76817,251.464758 C1237.67346,251.464758 1245.40474,254.04185 1251.84747,279.168502 L1305.32214,495.644273 C1306.61068,502.087004 1308.5435,504.664097 1309.83205,504.664097 C1311.12059,504.664097 1312.40914,501.442731 1313.05341,495.644273 L1353.64262,223.11674 C1354.28689,217.318282 1358.79681,211.519824 1365.23954,211.519824 L1427.73403,211.519824 C1434.82104,211.519824 1440.61949,217.318282 1440.61949,224.405286 Z M1754.92566,562.004405 C1754.92566,569.09141 1749.1272,574.889868 1742.0402,574.889868 L1687.27698,574.889868 C1680.18998,574.889868 1674.39152,569.09141 1674.39152,562.004405 L1674.39152,551.696035 C1644.75496,569.735683 1614.47412,580.044053 1583.54901,580.044053 C1530.07434,580.044053 1472.08976,559.427313 1472.08976,472.450441 L1472.08976,469.873348 C1472.08976,396.426211 1517.18888,358.414097 1629.2924,358.414097 L1669.88161,358.414097 L1669.88161,330.066079 C1669.88161,288.188326 1651.19769,277.879956 1613.18557,277.879956 C1571.95209,277.879956 1529.43007,280.457048 1508.16905,283.034141 L1504.94769,283.034141 C1498.50496,283.034141 1493.35077,281.101322 1493.35077,272.081498 L1493.35077,230.848018 C1493.35077,223.761013 1497.21641,219.251101 1505.59196,217.318282 C1531.36289,212.164097 1568.73073,207.009912 1613.18557,207.009912 C1704.67236,207.009912 1754.92566,247.599119 1754.92566,330.066079 L1754.92566,562.004405 Z M1669.88161,494.355727 L1669.88161,415.110132 L1629.2924,415.110132 C1570.66355,415.110132 1557.77808,433.794053 1557.77808,469.873348 L1557.77808,472.450441 C1557.77808,504.019824 1571.95209,512.395374 1604.16575,512.395374 C1627.35958,512.395374 1651.19769,504.664097 1669.88161,494.355727 Z M1922.98183,561.360132 C1922.98183,568.447137 1917.82764,574.889868 1910.74064,574.889868 L1850.82324,574.889868 C1843.73623,574.889868 1837.93778,568.447137 1837.93778,561.360132 L1837.93778,97.4834802 C1837.93778,90.3964758 1843.73623,84.5980176 1850.82324,84.5980176 L1910.74064,84.5980176 C1917.82764,84.5980176 1922.98183,90.3964758 1922.98183,97.4834802 L1922.98183,561.360132 Z M2298.49394,567.15859 C2298.49394,571.024229 2294.6283,574.889868 2289.47412,574.889868 L2210.8728,574.889868 C2203.78579,574.889868 2196.05452,567.802863 2192.18888,562.004405 L2091.038,415.110132 L2091.038,561.360132 C2091.038,568.447137 2085.23954,574.889868 2078.15253,574.889868 L2018.87941,574.889868 C2011.7924,574.889868 2005.99394,568.447137 2005.99394,561.360132 L2005.99394,97.4834802 C2005.99394,90.3964758 2011.7924,84.5980176 2018.87941,84.5980176 L2078.15253,84.5980176 C2085.23954,84.5980176 2091.038,90.3964758 2091.038,97.4834802 L2091.038,366.145374 L2201.2087,219.251101 C2205.71861,213.452643 2212.16134,211.519824 2216.02698,211.519824 L2288.18557,211.519824 C2294.6283,211.519824 2297.84967,214.096916 2297.84967,218.606828 C2297.84967,220.539648 2297.2054,222.472467 2295.27258,225.049559 L2165.77368,384.185022 L2296.56112,562.004405 C2297.84967,563.937225 2298.49394,565.225771 2298.49394,567.15859 Z M2444.64482,150.313877 C2444.64482,157.400881 2438.84637,163.199339 2431.75936,163.199339 L2369.26487,163.199339 C2362.17786,163.199339 2355.73513,157.400881 2355.73513,150.313877 L2355.73513,93.6178414 C2355.73513,86.530837 2362.17786,80.7323789 2369.26487,80.7323789 L2431.75936,80.7323789 C2438.84637,80.7323789 2444.64482,86.530837 2444.64482,93.6178414 L2444.64482,150.313877 Z M2442.712,561.360132 C2442.712,568.447137 2436.91355,574.889868 2429.82654,574.889868 L2370.55341,574.889868 C2363.46641,574.889868 2357.66795,568.447137 2357.66795,561.360132 L2357.66795,224.405286 C2357.66795,217.318282 2363.46641,211.519824 2370.55341,211.519824 L2429.82654,211.519824 C2436.91355,211.519824 2442.712,217.318282 2442.712,224.405286 L2442.712,561.360132 Z M2822.08976,561.360132 C2822.08976,568.447137 2816.2913,574.889868 2809.2043,574.889868 L2749.93117,574.889868 C2742.84416,574.889868 2737.0457,568.447137 2737.0457,561.360132 L2737.0457,351.327093 C2737.0457,295.27533 2731.89152,279.168502 2682.28249,279.168502 C2660.3772,279.168502 2636.5391,288.188326 2609.47963,302.362335 L2609.47963,561.360132 C2609.47963,568.447137 2603.68117,574.889868 2596.59416,574.889868 L2537.32104,574.889868 C2530.23403,574.889868 2524.43557,568.447137 2524.43557,561.360132 L2524.43557,224.405286 C2524.43557,217.318282 2530.23403,211.519824 2537.32104,211.519824 L2593.3728,211.519824 C2600.4598,211.519824 2606.25826,217.318282 2606.25826,224.405286 L2606.25826,237.935022 C2643.6261,214.096916 2668.10848,207.009912 2710.63051,207.009912 C2803.40584,207.009912 2822.08976,269.504405 2822.08976,351.327093 L2822.08976,561.360132 Z M3218.21861,255.97467 C3218.21861,265.638767 3215.64152,266.927313 3207.91024,270.148678 L3186.64923,278.524229 C3196.9576,293.342511 3202.75606,307.51652 3202.75606,330.066079 L3202.75606,334.575991 C3202.75606,415.110132 3147.34857,451.8337 3050.06333,451.8337 C3015.91685,451.8337 2992.72302,446.035242 2979.83756,440.881057 C2972.10628,446.035242 2968.88491,451.8337 2968.88491,457.632159 C2968.88491,470.517621 2975.97192,475.671806 2990.7902,478.893172 L3066.81443,496.932819 C3154.43557,517.549559 3211.13161,531.079295 3211.13161,600.01652 L3211.13161,604.526432 C3211.13161,670.242291 3162.81112,705.677313 3053.28469,705.677313 C2948.91244,705.677313 2893.50496,666.376652 2893.50496,598.727974 L2893.50496,592.929515 C2893.50496,566.514317 2905.74615,540.743392 2926.36289,522.059471 C2908.32324,508.529736 2897.37059,485.980176 2897.37059,462.786344 L2897.37059,462.14207 C2897.37059,442.169604 2905.74615,422.197137 2923.14152,409.955947 C2903.81333,389.98348 2896.72632,366.789648 2896.72632,334.575991 L2896.72632,330.066079 C2896.72632,265.638767 2938.60407,211.519824 3050.06333,211.519824 L3200.82324,211.519824 C3210.48733,211.519824 3218.21861,219.251101 3218.21861,228.915198 L3218.21861,255.97467 Z M3119.00055,336.508811 L3119.00055,331.354626 C3119.00055,300.429515 3105.47081,276.59141 3050.06333,276.59141 C2995.30011,276.59141 2980.48183,301.073789 2980.48183,331.354626 L2980.48183,336.508811 C2980.48183,360.346916 2990.14593,387.406388 3050.06333,387.406388 C3103.538,387.406388 3119.00055,368.722467 3119.00055,336.508811 Z M3126.08756,604.526432 L3126.08756,600.01652 C3126.08756,585.842511 3117.712,577.46696 3050.06333,561.360132 L2992.72302,547.830396 C2983.05892,561.360132 2976.61619,569.735683 2976.61619,592.929515 L2976.61619,598.727974 C2976.61619,625.143172 2992.72302,641.25 3053.28469,641.25 C3115.13491,641.25 3126.08756,627.720264 3126.08756,604.526432 Z" id="walking"></path>
                <path d="M309.821035,361.139868 C309.821035,426.211454 269.231828,495.792952 140.377203,495.792952 C92.0567181,495.792952 57.2659692,491.28304 26.340859,484.196035 C19.8981278,482.907489 14.0996696,478.397577 14.0996696,471.310573 L14.0996696,424.922907 C14.0996696,417.835903 19.8981278,412.681718 26.340859,412.681718 L27.6294053,412.681718 C53.4003304,415.903084 117.827643,419.124449 141.665749,419.124449 C199.006057,419.124449 216.401432,398.507709 216.401432,361.139868 C216.401432,336.013216 204.160242,323.127753 161.638216,298.001101 L76.594163,247.103524 C16.6767621,211.668502 0.569933921,174.300661 0.569933921,129.201542 C0.569933921,58.3314978 41.8034141,6.78964758 161.638216,6.78964758 C204.160242,6.78964758 263.43337,13.2323789 285.338656,18.3865639 C291.781388,19.6751101 296.935573,24.185022 296.935573,30.6277533 L296.935573,78.3039648 C296.935573,84.746696 292.425661,89.9008811 285.98293,89.9008811 L284.694383,89.9008811 C242.172357,86.0352423 199.65033,83.4581498 157.772577,83.4581498 C110.096366,83.4581498 90.1238987,100.209251 90.1238987,129.201542 C90.1238987,150.462555 101.076542,163.348018 142.954295,186.54185 L220.26707,229.70815 C291.137115,269.008811 309.821035,310.242291 309.821035,361.139868 Z M669.226322,482.907489 C669.226322,486.773128 665.360683,490.638767 660.206498,490.638767 L581.605176,490.638767 C574.518172,490.638767 566.786894,483.551762 562.921256,477.753304 L461.770374,330.859031 L461.770374,477.109031 C461.770374,484.196035 455.971916,490.638767 448.884912,490.638767 L389.611784,490.638767 C382.52478,490.638767 376.726322,484.196035 376.726322,477.109031 L376.726322,13.2323789 C376.726322,6.14537445 382.52478,0.3469163 389.611784,0.3469163 L448.884912,0.3469163 C455.971916,0.3469163 461.770374,6.14537445 461.770374,13.2323789 L461.770374,281.894273 L571.941079,135 C576.450991,129.201542 582.893722,127.268722 586.759361,127.268722 L658.917952,127.268722 C665.360683,127.268722 668.582048,129.845815 668.582048,134.355727 C668.582048,136.288546 667.937775,138.221366 666.004956,140.798458 L536.506057,299.933921 L667.293502,477.753304 C668.582048,479.686123 669.226322,480.97467 669.226322,482.907489 Z M1029.27588,138.221366 C1029.27588,139.509912 1029.27588,140.798458 1028.63161,142.087004 L921.037996,518.342511 C901.065529,588.568282 877.227423,619.493392 789.606278,619.493392 C768.345264,619.493392 736.131608,615.627753 721.313326,611.117841 C714.226322,609.185022 707.78359,606.60793 707.78359,600.165198 L707.78359,558.931718 C707.78359,551.844714 713.582048,547.334802 720.669053,547.334802 C721.313326,547.334802 721.313326,547.334802 721.957599,547.334802 C739.997247,547.979075 776.720815,551.200441 794.760463,551.200441 C822.464207,551.200441 836.638216,543.469163 845.65804,509.96696 L850.812225,490.638767 L841.148128,490.638767 C822.464207,490.638767 799.270374,486.128855 785.096366,437.164097 L700.696586,142.087004 C700.052313,140.154185 700.052313,138.865639 700.052313,137.577093 C700.052313,131.134361 703.917952,127.268722 712.293502,127.268722 L777.365088,127.268722 C783.163546,127.268722 788.317731,133.067181 789.606278,138.865639 L854.677863,401.084802 C857.254956,412.037445 859.832048,415.258811 863.697687,415.258811 L864.34196,415.258811 C865.630507,415.258811 866.919053,415.258811 867.563326,415.258811 C869.496145,415.258811 869.496145,415.258811 869.496145,415.258811 L939.077643,138.221366 C940.366189,132.422907 945.520374,127.268722 951.963106,127.268722 L1017.67896,127.268722 C1024.1217,127.268722 1029.27588,132.422907 1029.27588,138.221366 Z" id="Sky"></path>
            </g>
            <g id="moon-o" transform="translate(3304.973950, 323.548473) rotate(-183.000000) translate(-3304.973950, -323.548473) translate(3026.449721, 14.297372)" fill="#D8D8D8" fill-rule="nonzero">
                <path d="M556.201759,503.069627 C538.560505,506.036844 520.385618,507.520453 502.242121,507.520453 C320.273523,507.520453 172.645729,359.064881 172.645729,176.075948 C172.645729,113.448719 190.789226,52.2735334 223.654695,0 C93.1973036,38.9526209 0,159.314326 0,302.340521 C0,476.459368 140.753354,618.001955 313.901326,618.001955 C408.573966,618.001955 497.345261,574.598507 556.201759,503.069627 Z" id="Shape"></path>
            </g>
        </g>
    </g>
</svg>